HIERARCHY
ROOT root
{
	OFFSET	0.00	0.00	0.00
	CHANNELS 6 Xposition Yposition Zposition Zrotation Xrotation Yrotation
	JOINT backbone
	{
		OFFSET	15.23	0.00	0.00
		CHANNELS 3 Zrotation Xrotation Yrotation
		JOINT neck
		{
			OFFSET	42.07	0.00	0.00
			CHANNELS 3 Zrotation Xrotation Yrotation
			JOINT head
			{
				OFFSET	17.05	0.00	0.00
				CHANNELS 3 Zrotation Xrotation Yrotation
				End Site
				{
					OFFSET	4.54	0.00	-11.44
				}
				End Site
				{
					OFFSET	-2.46	-3.82	-11.44
				}
			}
		}
		JOINT left_collar
		{
			OFFSET	40.47	-8.01	0.00
			CHANNELS 3 Zrotation Xrotation Yrotation
			JOINT left_shoulder
			{
				OFFSET	12.80	0.85	2.21
				CHANNELS 3 Zrotation Xrotation Yrotation
				JOINT left_elbow
				{
					OFFSET	24.09	-0.09	-2.06
					CHANNELS 3 Zrotation Xrotation Yrotation
					JOINT left_hand
					{
						OFFSET	28.65	-0.03	2.06
						CHANNELS 3 Zrotation Xrotation Yrotation
						End Site
						{
							OFFSET	13.37	1.10	2.30
						}
						End Site
						{
							OFFSET	10.89	-7.28	1.82
						}
					}
				}
			}
		}
		JOINT right_collar
		{
			OFFSET	40.47	8.01	0.00
			CHANNELS 3 Zrotation Xrotation Yrotation
			JOINT right_shoulder
			{
				OFFSET	-12.80	-0.85	-2.21
				CHANNELS 3 Zrotation Xrotation Yrotation
				JOINT right_elbow
				{
					OFFSET	-24.09	0.09	2.06
					CHANNELS 3 Zrotation Xrotation Yrotation
					JOINT right_hand
					{
						OFFSET	-28.65	0.03	-2.06
						CHANNELS 3 Zrotation Xrotation Yrotation
						End Site
						{
							OFFSET	-13.37	-1.10	-2.30
						}
						End Site
						{
							OFFSET	-10.89	7.28	-1.82
						}
					}
				}
			}
		}
	}
	JOINT left_leg
	{
		OFFSET	0.04	-9.52	0.00
		CHANNELS 3 Zrotation Xrotation Yrotation
		JOINT left_knee
		{
			OFFSET	43.91	0.00	-5.49
			CHANNELS 3 Zrotation Xrotation Yrotation
			JOINT left_ankle
			{
				OFFSET	47.07	0.00	-3.99
				CHANNELS 3 Zrotation Xrotation Yrotation
				End Site
				{
					OFFSET	19.75	0.00	0.00
				}
				End Site
				{
					OFFSET	12.70	-2.54	-5.30
				}
				End Site
				{
					OFFSET	-0.40	-7.25	0.47
				}
			}
		}
	}
	JOINT right_leg
	{
		OFFSET	0.04	9.52	0.00
		CHANNELS 3 Zrotation Xrotation Yrotation
		JOINT right_knee
		{
			OFFSET	-43.91	0.00	5.49
			CHANNELS 3 Zrotation Xrotation Yrotation
			JOINT right_ankle
			{
				OFFSET	-47.07	0.00	3.99
				CHANNELS 3 Zrotation Xrotation Yrotation
				End Site
				{
					OFFSET	-19.75	0.00	0.00
				}
				End Site
				{
					OFFSET	-12.70	2.54	5.30
				}
				End Site
				{
					OFFSET	0.40	7.25	-0.47
				}
			}
		}
	}
}
MOTION
Frames:	16
Frame Time:	0.033333
4.82	99.06	-10.99	90.08	-26.20	0.59	-0.61	0.02	-0.72	0.00	0.00	0.00	119.77	4.79	179.79	87.70	0.94	173.68	174.45	37.35	179.29	1.45	-16.79	-4.44	145.00	58.74	-150.45	-92.57	-1.58	-12.34	174.98	31.93	179.01	3.93	5.16	-9.17	128.26	53.66	-138.73	9.82	7.98	176.76	-179.56	-8.69	-176.14	92.22	18.82	-97.16	-5.85	-3.93	-0.13	-179.89	-7.30	-177.42	92.59	19.03	-97.18	
4.80	99.06	-10.93	90.12	-26.19	0.60	-0.59	0.02	-0.67	0.00	0.00	0.00	119.65	4.75	179.97	87.57	0.92	173.84	174.31	37.44	179.43	1.47	-16.74	-4.38	144.83	58.71	-150.32	-92.68	-1.58	-12.39	175.06	31.86	178.95	3.89	4.92	-9.21	128.26	53.66	-138.72	9.77	7.97	176.74	-179.56	-8.70	-176.16	92.25	18.82	-97.16	-5.91	-4.03	-0.16	-179.88	-7.42	-177.43	92.56	19.02	-97.17	
4.78	99.06	-10.88	90.15	-26.18	0.59	-0.57	0.01	-0.61	0.00	0.00	0.00	119.56	4.73	180.11	87.46	0.90	173.96	174.19	37.51	179.57	1.49	-16.69	-4.33	144.66	58.68	-150.21	-92.77	-1.58	-12.42	175.13	31.80	178.89	3.85	4.70	-9.22	128.24	53.65	-138.70	9.74	7.97	176.73	-179.56	-8.72	-176.17	92.28	18.81	-97.16	-5.96	-4.09	-0.17	-179.87	-7.50	-177.43	92.53	19.00	-97.17	
4.76	99.06	-10.84	90.16	-26.18	0.56	-0.55	-0.01	-0.55	0.00	0.00	0.00	119.50	4.73	180.17	87.40	0.88	174.04	174.11	37.53	179.71	1.50	-16.65	-4.30	144.50	58.67	-150.13	-92.82	-1.57	-12.40	175.18	31.77	178.85	3.82	4.54	-9.21	128.20	53.64	-138.68	9.72	7.98	176.73	-179.56	-8.75	-176.18	92.31	18.79	-97.16	-5.98	-4.12	-0.18	-179.87	-7.53	-177.44	92.51	18.98	-97.17	
4.73	99.06	-10.80	90.13	-26.18	0.50	-0.50	-0.03	-0.48	0.00	0.00	0.00	119.45	4.74	180.18	87.36	0.87	174.11	174.05	37.52	179.87	1.50	-16.66	-4.29	144.39	58.66	-150.10	-92.85	-1.56	-12.35	175.21	31.73	178.85	3.80	4.44	-9.19	128.14	53.62	-138.66	9.74	8.02	176.75	-179.55	-8.81	-176.18	92.33	18.77	-97.16	-5.96	-4.09	-0.16	-179.87	-7.48	-177.45	92.50	18.97	-97.17	
4.69	99.05	-10.77	90.08	-26.19	0.43	-0.44	-0.05	-0.42	0.00	0.00	0.00	119.40	4.76	180.15	87.33	0.86	174.16	173.99	37.48	180.01	1.50	-16.71	-4.30	144.38	58.67	-150.12	-92.89	-1.55	-12.30	175.24	31.70	178.86	3.79	4.41	-9.17	128.09	53.61	-138.64	9.79	8.09	176.76	-179.54	-8.89	-176.19	92.34	18.73	-97.16	-5.91	-4.01	-0.15	-179.88	-7.39	-177.46	92.49	18.96	-97.17	
4.65	99.05	-10.73	90.03	-26.20	0.35	-0.35	-0.04	-0.37	0.00	0.00	0.00	119.34	4.81	180.12	87.28	0.86	174.19	173.97	37.44	180.10	1.49	-16.80	-4.30	144.45	58.68	-150.18	-92.95	-1.55	-12.30	175.30	31.65	178.87	3.79	4.39	-9.17	128.08	53.62	-138.67	9.87	8.20	176.76	-179.53	-8.98	-176.21	92.36	18.71	-97.16	-5.83	-3.91	-0.12	-179.89	-7.30	-177.45	92.50	18.93	-97.17	
4.60	99.05	-10.69	89.97	-26.20	0.28	-0.26	0.00	-0.34	0.00	0.00	0.00	119.29	4.88	180.11	87.23	0.86	174.20	173.98	37.39	180.12	1.48	-16.87	-4.31	144.55	58.69	-150.23	-93.03	-1.55	-12.36	175.39	31.60	178.87	3.79	4.39	-9.19	128.11	53.66	-138.72	9.95	8.32	176.74	-179.53	-9.07	-176.24	92.37	18.69	-97.16	-5.76	-3.84	-0.10	-179.89	-7.24	-177.43	92.51	18.88	-97.16	
4.54	99.05	-10.64	89.93	-26.21	0.22	-0.17	0.08	-0.32	0.00	0.00	0.00	119.23	4.95	180.12	87.15	0.86	174.21	173.99	37.36	180.13	1.47	-16.86	-4.32	144.60	58.69	-150.23	-93.12	-1.56	-12.48	175.51	31.56	178.84	3.80	4.41	-9.21	128.18	53.70	-138.79	10.03	8.43	176.71	-179.53	-9.15	-176.30	92.38	18.69	-97.16	-5.70	-3.78	-0.08	-179.89	-7.21	-177.40	92.54	18.82	-97.16	
4.49	99.05	-10.59	89.90	-26.22	0.17	-0.09	0.18	-0.29	0.00	0.00	0.00	119.19	5.01	180.16	87.07	0.86	174.24	173.97	37.34	180.17	1.47	-16.81	-4.35	144.61	58.68	-150.19	-93.22	-1.57	-12.62	175.65	31.54	178.78	3.81	4.44	-9.23	128.26	53.74	-138.86	10.09	8.53	176.68	-179.53	-9.21	-176.35	92.38	18.68	-97.16	-5.65	-3.74	-0.07	-179.89	-7.21	-177.38	92.57	18.75	-97.16	
4.43	99.05	-10.53	89.91	-26.24	0.14	-0.05	0.26	-0.26	0.00	0.00	0.00	119.17	5.06	180.18	87.02	0.86	174.24	173.95	37.32	180.25	1.45	-16.83	-4.41	144.62	58.66	-150.15	-93.31	-1.57	-12.72	175.79	31.52	178.74	3.82	4.48	-9.27	128.33	53.77	-138.91	10.11	8.59	176.63	-179.53	-9.24	-176.38	92.36	18.66	-97.16	-5.63	-3.72	-0.07	-179.89	-7.20	-177.36	92.60	18.69	-97.15	
4.37	99.04	-10.47	89.92	-26.27	0.12	-0.04	0.33	-0.26	0.00	0.00	0.00	119.15	5.09	180.19	86.99	0.86	174.22	173.93	37.30	180.35	1.39	-17.10	-4.55	144.69	58.66	-150.15	-93.38	-1.57	-12.80	175.92	31.51	178.75	3.83	4.50	-9.36	128.36	53.79	-138.93	10.12	8.63	176.60	-179.53	-9.23	-176.39	92.34	18.63	-97.15	-5.62	-3.71	-0.08	-179.89	-7.21	-177.33	92.64	18.63	-97.15	
4.30	99.03	-10.41	89.92	-26.29	0.10	-0.03	0.40	-0.27	0.00	0.00	0.00	119.14	5.11	180.20	86.96	0.87	174.20	173.92	37.27	180.48	1.24	-17.83	-4.79	144.90	58.69	-150.27	-93.41	-1.58	-12.85	176.04	31.50	178.81	3.85	4.56	-9.52	128.38	53.76	-138.89	10.13	8.65	176.60	-179.53	-9.20	-176.35	92.31	18.58	-97.15	-5.59	-3.71	-0.06	-179.87	-7.22	-177.26	92.69	18.56	-97.15	
4.20	99.03	-10.37	89.91	-26.32	0.07	-0.03	0.48	-0.32	0.00	0.00	0.00	119.14	5.15	180.19	86.92	0.87	174.17	173.94	37.23	180.63	0.99	-19.16	-5.18	145.29	58.76	-150.53	-93.37	-1.58	-12.85	176.15	31.51	178.99	3.89	4.68	-9.77	128.35	53.67	-138.73	10.16	8.63	176.63	-179.52	-9.13	-176.25	92.26	18.51	-97.14	-5.52	-3.75	0.00	-179.85	-7.28	-177.11	92.75	18.48	-97.15	
4.09	99.01	-10.35	89.87	-26.33	0.03	-0.04	0.55	-0.40	0.00	0.00	0.00	119.18	5.22	180.17	86.86	0.88	174.14	173.98	37.21	180.82	0.57	-21.14	-5.75	145.86	58.86	-150.92	-93.23	-1.59	-12.80	176.25	31.53	179.30	3.96	4.87	-10.13	128.24	53.47	-138.37	10.22	8.56	176.70	-179.51	-9.00	-176.10	92.20	18.42	-97.14	-5.41	-3.83	0.12	-179.81	-7.38	-176.86	92.82	18.37	-97.14	
3.93	99.00	-10.35	89.81	-26.35	-0.02	-0.05	0.61	-0.51	0.00	0.00	0.00	119.25	5.35	180.10	86.79	0.89	174.10	174.05	37.20	181.02	-0.03	-23.71	-6.53	146.59	58.98	-151.39	-92.97	-1.59	-12.68	176.37	31.56	179.78	4.05	5.10	-10.63	128.02	53.10	-137.75	10.33	8.42	176.80	-179.50	-8.82	-175.90	92.11	18.32	-97.13	-5.27	-3.96	0.30	-179.74	-7.53	-176.49	92.88	18.23	-97.13	
